<?xml version="1.0" encoding="UTF-8"?>
<svg xmlns="http://www.w3.org/2000/svg" width="140" height="16" viewBox="0 0 140 16">
<style type="text/css" id="current-color-scheme">.ColorScheme-HeaderBackground{color:#2d2c3b;}.ColorScheme-HeaderText{color:#dedee1;}</style>
<g id="active-center" transform="translate(0 0)"><rect width="16" height="16" fill="#000000" fill-opacity="0"/><circle cx="8" cy="8" r="6.5" fill="#7dd6aa" fill-opacity="1"/></g>
<g id="hover-center" transform="translate(20 0)"><rect width="16" height="16" fill="#000000" fill-opacity="0"/><circle cx="8" cy="8" r="6.5" fill="#7dd6aa" fill-opacity="1"/><path d="M7.6 7.6 V3.9 L3.9 7.6 Z M8.4 8.4 V12.1 L12.1 8.4 Z" fill="#2a1610" fill-opacity="0.75"/></g>
<g id="pressed-center" transform="translate(40 0)"><rect width="16" height="16" fill="#000000" fill-opacity="0"/><circle cx="8" cy="8" r="6.5" fill="#7dd6aa" fill-opacity="0.7"/><path d="M7.6 7.6 V3.9 L3.9 7.6 Z M8.4 8.4 V12.1 L12.1 8.4 Z" fill="#2a1610" fill-opacity="0.85"/></g>
<g id="inactive-center" transform="translate(60 0)"><rect width="16" height="16" fill="#000000" fill-opacity="0"/><circle cx="8" cy="8" r="6.5" fill="currentColor" class="ColorScheme-HeaderText" fill-opacity="0.22"/></g>
<g id="hover-inactive-center" transform="translate(80 0)"><rect width="16" height="16" fill="#000000" fill-opacity="0"/><circle cx="8" cy="8" r="6.5" fill="#7dd6aa" fill-opacity="1"/><path d="M7.6 7.6 V3.9 L3.9 7.6 Z M8.4 8.4 V12.1 L12.1 8.4 Z" fill="#2a1610" fill-opacity="0.75"/></g>
<g id="deactivated-center" transform="translate(100 0)"><rect width="16" height="16" fill="#000000" fill-opacity="0"/><circle cx="8" cy="8" r="6.5" fill="currentColor" class="ColorScheme-HeaderText" fill-opacity="0.12"/></g>
<g id="deactivated-inactive-center" transform="translate(120 0)"><rect width="16" height="16" fill="#000000" fill-opacity="0"/><circle cx="8" cy="8" r="6.5" fill="currentColor" class="ColorScheme-HeaderText" fill-opacity="0.1"/></g>
</svg>
