<?xml version="1.0" encoding="UTF-8"?>
<svg xmlns="http://www.w3.org/2000/svg" width="484" height="48" viewBox="0 0 484 48">
  <style type="text/css" id="current-color-scheme">
    .ColorScheme-Text { color:#231f20; stop-color:#231f20; }
    .ColorScheme-Background { color:#eff0f1; stop-color:#eff0f1; }
  </style>
<g id="topleft" transform="translate(8 8)"><g><rect x="0" y="0" width="7" height="7" fill="#000000" fill-opacity="0"/><path d="M 1 7 A 6 6 0 0 1 7 1 L 7 7 Z" fill="currentColor" class="ColorScheme-Background" fill-opacity="0.6"/><path d="M 0 7 A 7 7 0 0 1 7 0 L 7 1 A 6 6 0 0 0 1 7 Z" fill="currentColor" class="ColorScheme-Text" fill-opacity="0.15"/></g></g>
<g id="topright" transform="translate(23 8)"><g transform="translate(7 0) scale(-1 1)"><rect x="0" y="0" width="7" height="7" fill="#000000" fill-opacity="0"/><path d="M 1 7 A 6 6 0 0 1 7 1 L 7 7 Z" fill="currentColor" class="ColorScheme-Background" fill-opacity="0.6"/><path d="M 0 7 A 7 7 0 0 1 7 0 L 7 1 A 6 6 0 0 0 1 7 Z" fill="currentColor" class="ColorScheme-Text" fill-opacity="0.15"/></g></g>
<g id="bottomleft" transform="translate(38 8)"><g transform="translate(0 7) scale(1 -1)"><rect x="0" y="0" width="7" height="7" fill="#000000" fill-opacity="0"/><path d="M 1 7 A 6 6 0 0 1 7 1 L 7 7 Z" fill="currentColor" class="ColorScheme-Background" fill-opacity="0.6"/><path d="M 0 7 A 7 7 0 0 1 7 0 L 7 1 A 6 6 0 0 0 1 7 Z" fill="currentColor" class="ColorScheme-Text" fill-opacity="0.15"/></g></g>
<g id="bottomright" transform="translate(53 8)"><g transform="translate(7 7) scale(-1 -1)"><rect x="0" y="0" width="7" height="7" fill="#000000" fill-opacity="0"/><path d="M 1 7 A 6 6 0 0 1 7 1 L 7 7 Z" fill="currentColor" class="ColorScheme-Background" fill-opacity="0.6"/><path d="M 0 7 A 7 7 0 0 1 7 0 L 7 1 A 6 6 0 0 0 1 7 Z" fill="currentColor" class="ColorScheme-Text" fill-opacity="0.15"/></g></g>
<g id="top" transform="translate(68 8)"><rect x="0" y="0" width="32" height="7" fill="#000000" fill-opacity="0"/><rect x="0" y="0" width="32" height="7" fill="currentColor" class="ColorScheme-Background" fill-opacity="0.6"/><rect x="0" y="0" width="32" height="1" fill="currentColor" class="ColorScheme-Text" fill-opacity="0.15"/></g>
<g id="bottom" transform="translate(108 8)"><rect x="0" y="0" width="32" height="7" fill="#000000" fill-opacity="0"/><rect x="0" y="0" width="32" height="7" fill="currentColor" class="ColorScheme-Background" fill-opacity="0.6"/><rect x="0" y="6" width="32" height="1" fill="currentColor" class="ColorScheme-Text" fill-opacity="0.15"/></g>
<g id="left" transform="translate(148 8)"><rect x="0" y="0" width="7" height="32" fill="#000000" fill-opacity="0"/><rect x="0" y="0" width="7" height="32" fill="currentColor" class="ColorScheme-Background" fill-opacity="0.6"/><rect x="0" y="0" width="1" height="32" fill="currentColor" class="ColorScheme-Text" fill-opacity="0.15"/></g>
<g id="right" transform="translate(163 8)"><rect x="0" y="0" width="7" height="32" fill="#000000" fill-opacity="0"/><rect x="0" y="0" width="7" height="32" fill="currentColor" class="ColorScheme-Background" fill-opacity="0.6"/><rect x="6" y="0" width="1" height="32" fill="currentColor" class="ColorScheme-Text" fill-opacity="0.15"/></g>
<g id="center" transform="translate(178 8)"><rect x="0" y="0" width="32" height="32" fill="currentColor" class="ColorScheme-Background" fill-opacity="0.6"/></g>
<g id="hint-top-margin" transform="translate(218 8)"><rect x="0" y="0" width="6" height="6" fill="#000000" fill-opacity="0"/></g>
<g id="hint-bottom-margin" transform="translate(232 8)"><rect x="0" y="0" width="6" height="6" fill="#000000" fill-opacity="0"/></g>
<g id="hint-left-margin" transform="translate(246 8)"><rect x="0" y="0" width="6" height="6" fill="#000000" fill-opacity="0"/></g>
<g id="hint-right-margin" transform="translate(260 8)"><rect x="0" y="0" width="6" height="6" fill="#000000" fill-opacity="0"/></g>
<g id="mask-topleft" transform="translate(274 8)"><g><rect x="0" y="0" width="7" height="7" fill="#000000" fill-opacity="0"/><path d="M 1 7 A 6 6 0 0 1 7 1 L 7 7 Z" fill="#ffffff" fill-opacity="1"/></g></g>
<g id="mask-topright" transform="translate(289 8)"><g transform="translate(7 0) scale(-1 1)"><rect x="0" y="0" width="7" height="7" fill="#000000" fill-opacity="0"/><path d="M 1 7 A 6 6 0 0 1 7 1 L 7 7 Z" fill="#ffffff" fill-opacity="1"/></g></g>
<g id="mask-bottomleft" transform="translate(304 8)"><g transform="translate(0 7) scale(1 -1)"><rect x="0" y="0" width="7" height="7" fill="#000000" fill-opacity="0"/><path d="M 1 7 A 6 6 0 0 1 7 1 L 7 7 Z" fill="#ffffff" fill-opacity="1"/></g></g>
<g id="mask-bottomright" transform="translate(319 8)"><g transform="translate(7 7) scale(-1 -1)"><rect x="0" y="0" width="7" height="7" fill="#000000" fill-opacity="0"/><path d="M 1 7 A 6 6 0 0 1 7 1 L 7 7 Z" fill="#ffffff" fill-opacity="1"/></g></g>
<g id="mask-top" transform="translate(334 8)"><rect x="0" y="0" width="32" height="7" fill="#000000" fill-opacity="0"/><rect x="0" y="0" width="32" height="7" fill="#ffffff" fill-opacity="1"/></g>
<g id="mask-bottom" transform="translate(374 8)"><rect x="0" y="0" width="32" height="7" fill="#000000" fill-opacity="0"/><rect x="0" y="0" width="32" height="7" fill="#ffffff" fill-opacity="1"/></g>
<g id="mask-left" transform="translate(414 8)"><rect x="0" y="0" width="7" height="32" fill="#000000" fill-opacity="0"/><rect x="0" y="0" width="7" height="32" fill="#ffffff" fill-opacity="1"/></g>
<g id="mask-right" transform="translate(429 8)"><rect x="0" y="0" width="7" height="32" fill="#000000" fill-opacity="0"/><rect x="0" y="0" width="7" height="32" fill="#ffffff" fill-opacity="1"/></g>
<g id="mask-center" transform="translate(444 8)"><rect x="0" y="0" width="32" height="32" fill="#ffffff" fill-opacity="1"/></g>
</svg>
