<?xml version="1.0" encoding="UTF-8"?>
<svg xmlns="http://www.w3.org/2000/svg" width="1044.0" height="36" viewBox="0 0 1044.0 36">
<style type="text/css" id="current-color-scheme">.ColorScheme-HeaderBackground{color:#2d2c3b;}.ColorScheme-HeaderText{color:#dedee1;}</style>
<defs><radialGradient id="decorationtopleft" gradientUnits="userSpaceOnUse" cx="36" cy="36" r="36"><stop offset="0.0000" stop-color="#000000" stop-opacity="0.0000"/><stop offset="0.3332" stop-color="#000000" stop-opacity="0.0000"/><stop offset="0.3333" stop-color="#000000" stop-opacity="0.4200"/><stop offset="0.5667" stop-color="#000000" stop-opacity="0.1890"/><stop offset="0.8000" stop-color="#000000" stop-opacity="0.0504"/><stop offset="1.0000" stop-color="#000000" stop-opacity="0.0000"/></radialGradient><radialGradient id="decorationtopright" gradientUnits="userSpaceOnUse" cx="36" cy="36" r="36"><stop offset="0.0000" stop-color="#000000" stop-opacity="0.0000"/><stop offset="0.3332" stop-color="#000000" stop-opacity="0.0000"/><stop offset="0.3333" stop-color="#000000" stop-opacity="0.4200"/><stop offset="0.5667" stop-color="#000000" stop-opacity="0.1890"/><stop offset="0.8000" stop-color="#000000" stop-opacity="0.0504"/><stop offset="1.0000" stop-color="#000000" stop-opacity="0.0000"/></radialGradient><radialGradient id="decorationbottomleft" gradientUnits="userSpaceOnUse" cx="36" cy="36" r="36"><stop offset="0.0000" stop-color="#000000" stop-opacity="0.0000"/><stop offset="0.3332" stop-color="#000000" stop-opacity="0.0000"/><stop offset="0.3333" stop-color="#000000" stop-opacity="0.4200"/><stop offset="0.5667" stop-color="#000000" stop-opacity="0.1890"/><stop offset="0.8000" stop-color="#000000" stop-opacity="0.0504"/><stop offset="1.0000" stop-color="#000000" stop-opacity="0.0000"/></radialGradient><radialGradient id="decorationbottomright" gradientUnits="userSpaceOnUse" cx="36" cy="36" r="36"><stop offset="0.0000" stop-color="#000000" stop-opacity="0.0000"/><stop offset="0.3332" stop-color="#000000" stop-opacity="0.0000"/><stop offset="0.3333" stop-color="#000000" stop-opacity="0.4200"/><stop offset="0.5667" stop-color="#000000" stop-opacity="0.1890"/><stop offset="0.8000" stop-color="#000000" stop-opacity="0.0504"/><stop offset="1.0000" stop-color="#000000" stop-opacity="0.0000"/></radialGradient><linearGradient id="decorationtop" gradientUnits="userSpaceOnUse" x1="0" y1="24" x2="0" y2="0"><stop offset="0.0000" stop-color="#000000" stop-opacity="0.4200"/><stop offset="0.3500" stop-color="#000000" stop-opacity="0.1890"/><stop offset="0.7000" stop-color="#000000" stop-opacity="0.0504"/><stop offset="1.0000" stop-color="#000000" stop-opacity="0.0000"/></linearGradient><linearGradient id="decorationbottom" gradientUnits="userSpaceOnUse" x1="0" y1="24" x2="0" y2="0"><stop offset="0.0000" stop-color="#000000" stop-opacity="0.4200"/><stop offset="0.3500" stop-color="#000000" stop-opacity="0.1890"/><stop offset="0.7000" stop-color="#000000" stop-opacity="0.0504"/><stop offset="1.0000" stop-color="#000000" stop-opacity="0.0000"/></linearGradient><linearGradient id="decorationleft" gradientUnits="userSpaceOnUse" x1="24" y1="0" x2="0" y2="0"><stop offset="0.0000" stop-color="#000000" stop-opacity="0.4200"/><stop offset="0.3500" stop-color="#000000" stop-opacity="0.1890"/><stop offset="0.7000" stop-color="#000000" stop-opacity="0.0504"/><stop offset="1.0000" stop-color="#000000" stop-opacity="0.0000"/></linearGradient><linearGradient id="decorationright" gradientUnits="userSpaceOnUse" x1="24" y1="0" x2="0" y2="0"><stop offset="0.0000" stop-color="#000000" stop-opacity="0.4200"/><stop offset="0.3500" stop-color="#000000" stop-opacity="0.1890"/><stop offset="0.7000" stop-color="#000000" stop-opacity="0.0504"/><stop offset="1.0000" stop-color="#000000" stop-opacity="0.0000"/></linearGradient><radialGradient id="decoration-inactivetopleft" gradientUnits="userSpaceOnUse" cx="36" cy="36" r="36"><stop offset="0.0000" stop-color="#000000" stop-opacity="0.0000"/><stop offset="0.3332" stop-color="#000000" stop-opacity="0.0000"/><stop offset="0.3333" stop-color="#000000" stop-opacity="0.2400"/><stop offset="0.5667" stop-color="#000000" stop-opacity="0.1080"/><stop offset="0.8000" stop-color="#000000" stop-opacity="0.0288"/><stop offset="1.0000" stop-color="#000000" stop-opacity="0.0000"/></radialGradient><radialGradient id="decoration-inactivetopright" gradientUnits="userSpaceOnUse" cx="36" cy="36" r="36"><stop offset="0.0000" stop-color="#000000" stop-opacity="0.0000"/><stop offset="0.3332" stop-color="#000000" stop-opacity="0.0000"/><stop offset="0.3333" stop-color="#000000" stop-opacity="0.2400"/><stop offset="0.5667" stop-color="#000000" stop-opacity="0.1080"/><stop offset="0.8000" stop-color="#000000" stop-opacity="0.0288"/><stop offset="1.0000" stop-color="#000000" stop-opacity="0.0000"/></radialGradient><radialGradient id="decoration-inactivebottomleft" gradientUnits="userSpaceOnUse" cx="36" cy="36" r="36"><stop offset="0.0000" stop-color="#000000" stop-opacity="0.0000"/><stop offset="0.3332" stop-color="#000000" stop-opacity="0.0000"/><stop offset="0.3333" stop-color="#000000" stop-opacity="0.2400"/><stop offset="0.5667" stop-color="#000000" stop-opacity="0.1080"/><stop offset="0.8000" stop-color="#000000" stop-opacity="0.0288"/><stop offset="1.0000" stop-color="#000000" stop-opacity="0.0000"/></radialGradient><radialGradient id="decoration-inactivebottomright" gradientUnits="userSpaceOnUse" cx="36" cy="36" r="36"><stop offset="0.0000" stop-color="#000000" stop-opacity="0.0000"/><stop offset="0.3332" stop-color="#000000" stop-opacity="0.0000"/><stop offset="0.3333" stop-color="#000000" stop-opacity="0.2400"/><stop offset="0.5667" stop-color="#000000" stop-opacity="0.1080"/><stop offset="0.8000" stop-color="#000000" stop-opacity="0.0288"/><stop offset="1.0000" stop-color="#000000" stop-opacity="0.0000"/></radialGradient><linearGradient id="decoration-inactivetop" gradientUnits="userSpaceOnUse" x1="0" y1="24" x2="0" y2="0"><stop offset="0.0000" stop-color="#000000" stop-opacity="0.2400"/><stop offset="0.3500" stop-color="#000000" stop-opacity="0.1080"/><stop offset="0.7000" stop-color="#000000" stop-opacity="0.0288"/><stop offset="1.0000" stop-color="#000000" stop-opacity="0.0000"/></linearGradient><linearGradient id="decoration-inactivebottom" gradientUnits="userSpaceOnUse" x1="0" y1="24" x2="0" y2="0"><stop offset="0.0000" stop-color="#000000" stop-opacity="0.2400"/><stop offset="0.3500" stop-color="#000000" stop-opacity="0.1080"/><stop offset="0.7000" stop-color="#000000" stop-opacity="0.0288"/><stop offset="1.0000" stop-color="#000000" stop-opacity="0.0000"/></linearGradient><linearGradient id="decoration-inactiveleft" gradientUnits="userSpaceOnUse" x1="24" y1="0" x2="0" y2="0"><stop offset="0.0000" stop-color="#000000" stop-opacity="0.2400"/><stop offset="0.3500" stop-color="#000000" stop-opacity="0.1080"/><stop offset="0.7000" stop-color="#000000" stop-opacity="0.0288"/><stop offset="1.0000" stop-color="#000000" stop-opacity="0.0000"/></linearGradient><linearGradient id="decoration-inactiveright" gradientUnits="userSpaceOnUse" x1="24" y1="0" x2="0" y2="0"><stop offset="0.0000" stop-color="#000000" stop-opacity="0.2400"/><stop offset="0.3500" stop-color="#000000" stop-opacity="0.1080"/><stop offset="0.7000" stop-color="#000000" stop-opacity="0.0288"/><stop offset="1.0000" stop-color="#000000" stop-opacity="0.0000"/></linearGradient></defs>
<g id="decoration-topleft" transform="translate(0.0 0)"><rect width="36" height="36" fill="#000000" fill-opacity="0"/><rect width="36" height="36" fill="url(#decorationtopleft)"/><path d="M 24 36 A 12 12 0 0 1 36 24 L 36 36 Z" fill="currentColor" class="ColorScheme-HeaderBackground" fill-opacity="0.94"/><path d="M 23 36 A 13 13 0 0 1 36 23 L 36 24 A 12 12 0 0 0 24 36 Z" fill="#ffffff" fill-opacity="0.08"/></g>
<g id="decoration-topright" transform="translate(40.0 0)"><rect width="36" height="36" fill="#000000" fill-opacity="0"/><g transform="translate(36 0) scale(-1 1)"><rect width="36" height="36" fill="url(#decorationtopright)"/><path d="M 24 36 A 12 12 0 0 1 36 24 L 36 36 Z" fill="currentColor" class="ColorScheme-HeaderBackground" fill-opacity="0.94"/><path d="M 23 36 A 13 13 0 0 1 36 23 L 36 24 A 12 12 0 0 0 24 36 Z" fill="#ffffff" fill-opacity="0.08"/></g></g>
<g id="decoration-bottomleft" transform="translate(80.0 0)"><rect width="36" height="36" fill="#000000" fill-opacity="0"/><g transform="translate(0 36) scale(1 -1)"><rect width="36" height="36" fill="url(#decorationbottomleft)"/><path d="M 24 36 A 12 12 0 0 1 36 24 L 36 36 Z" fill="currentColor" class="ColorScheme-HeaderBackground" fill-opacity="0.94"/><path d="M 23 36 A 13 13 0 0 1 36 23 L 36 24 A 12 12 0 0 0 24 36 Z" fill="#ffffff" fill-opacity="0.08"/></g></g>
<g id="decoration-bottomright" transform="translate(120.0 0)"><rect width="36" height="36" fill="#000000" fill-opacity="0"/><g transform="translate(36 36) scale(-1 -1)"><rect width="36" height="36" fill="url(#decorationbottomright)"/><path d="M 24 36 A 12 12 0 0 1 36 24 L 36 36 Z" fill="currentColor" class="ColorScheme-HeaderBackground" fill-opacity="0.94"/><path d="M 23 36 A 13 13 0 0 1 36 23 L 36 24 A 12 12 0 0 0 24 36 Z" fill="#ffffff" fill-opacity="0.08"/></g></g>
<g id="decoration-top" transform="translate(160.0 0)"><rect width="32" height="36" fill="#000000" fill-opacity="0"/><rect width="32" height="36" fill="url(#decorationtop)"/><rect y="24" width="32" height="12" fill="currentColor" class="ColorScheme-HeaderBackground" fill-opacity="0.94"/><rect y="23" width="32" height="1" fill="#ffffff" fill-opacity="0.08"/></g>
<g id="decoration-bottom" transform="translate(196.0 0)"><rect width="32" height="36" fill="#000000" fill-opacity="0"/><g transform="translate(0 36) scale(1 -1)"><rect width="32" height="36" fill="url(#decorationbottom)"/><rect y="24" width="32" height="12" fill="currentColor" class="ColorScheme-HeaderBackground" fill-opacity="0.94"/><rect y="23" width="32" height="1" fill="#ffffff" fill-opacity="0.08"/></g></g>
<g id="decoration-left" transform="translate(232.0 0)"><rect width="36" height="32" fill="#000000" fill-opacity="0"/><rect width="24" height="32" fill="url(#decorationleft)"/><rect x="24" width="12" height="32" fill="currentColor" class="ColorScheme-HeaderBackground" fill-opacity="0.94"/><rect x="23" width="1" height="32" fill="#ffffff" fill-opacity="0.08"/></g>
<g id="decoration-right" transform="translate(272.0 0)"><rect width="36" height="32" fill="#000000" fill-opacity="0"/><g transform="translate(36 0) scale(-1 1)"><rect width="24" height="32" fill="url(#decorationright)"/><rect x="24" width="12" height="32" fill="currentColor" class="ColorScheme-HeaderBackground" fill-opacity="0.94"/><rect x="23" width="1" height="32" fill="#ffffff" fill-opacity="0.08"/></g></g>
<g id="decoration-center" transform="translate(312.0 0)"><rect width="32" height="32" fill="#000000" fill-opacity="0"/><rect width="32" height="32" fill="currentColor" class="ColorScheme-HeaderBackground" fill-opacity="0.94"/></g>
<g id="decoration-inactive-topleft" transform="translate(348.0 0)"><rect width="36" height="36" fill="#000000" fill-opacity="0"/><rect width="36" height="36" fill="url(#decoration-inactivetopleft)"/><path d="M 24 36 A 12 12 0 0 1 36 24 L 36 36 Z" fill="currentColor" class="ColorScheme-HeaderBackground" fill-opacity="0.94"/><path d="M 23 36 A 13 13 0 0 1 36 23 L 36 24 A 12 12 0 0 0 24 36 Z" fill="#ffffff" fill-opacity="0.08"/></g>
<g id="decoration-inactive-topright" transform="translate(388.0 0)"><rect width="36" height="36" fill="#000000" fill-opacity="0"/><g transform="translate(36 0) scale(-1 1)"><rect width="36" height="36" fill="url(#decoration-inactivetopright)"/><path d="M 24 36 A 12 12 0 0 1 36 24 L 36 36 Z" fill="currentColor" class="ColorScheme-HeaderBackground" fill-opacity="0.94"/><path d="M 23 36 A 13 13 0 0 1 36 23 L 36 24 A 12 12 0 0 0 24 36 Z" fill="#ffffff" fill-opacity="0.08"/></g></g>
<g id="decoration-inactive-bottomleft" transform="translate(428.0 0)"><rect width="36" height="36" fill="#000000" fill-opacity="0"/><g transform="translate(0 36) scale(1 -1)"><rect width="36" height="36" fill="url(#decoration-inactivebottomleft)"/><path d="M 24 36 A 12 12 0 0 1 36 24 L 36 36 Z" fill="currentColor" class="ColorScheme-HeaderBackground" fill-opacity="0.94"/><path d="M 23 36 A 13 13 0 0 1 36 23 L 36 24 A 12 12 0 0 0 24 36 Z" fill="#ffffff" fill-opacity="0.08"/></g></g>
<g id="decoration-inactive-bottomright" transform="translate(468.0 0)"><rect width="36" height="36" fill="#000000" fill-opacity="0"/><g transform="translate(36 36) scale(-1 -1)"><rect width="36" height="36" fill="url(#decoration-inactivebottomright)"/><path d="M 24 36 A 12 12 0 0 1 36 24 L 36 36 Z" fill="currentColor" class="ColorScheme-HeaderBackground" fill-opacity="0.94"/><path d="M 23 36 A 13 13 0 0 1 36 23 L 36 24 A 12 12 0 0 0 24 36 Z" fill="#ffffff" fill-opacity="0.08"/></g></g>
<g id="decoration-inactive-top" transform="translate(508.0 0)"><rect width="32" height="36" fill="#000000" fill-opacity="0"/><rect width="32" height="36" fill="url(#decoration-inactivetop)"/><rect y="24" width="32" height="12" fill="currentColor" class="ColorScheme-HeaderBackground" fill-opacity="0.94"/><rect y="23" width="32" height="1" fill="#ffffff" fill-opacity="0.08"/></g>
<g id="decoration-inactive-bottom" transform="translate(544.0 0)"><rect width="32" height="36" fill="#000000" fill-opacity="0"/><g transform="translate(0 36) scale(1 -1)"><rect width="32" height="36" fill="url(#decoration-inactivebottom)"/><rect y="24" width="32" height="12" fill="currentColor" class="ColorScheme-HeaderBackground" fill-opacity="0.94"/><rect y="23" width="32" height="1" fill="#ffffff" fill-opacity="0.08"/></g></g>
<g id="decoration-inactive-left" transform="translate(580.0 0)"><rect width="36" height="32" fill="#000000" fill-opacity="0"/><rect width="24" height="32" fill="url(#decoration-inactiveleft)"/><rect x="24" width="12" height="32" fill="currentColor" class="ColorScheme-HeaderBackground" fill-opacity="0.94"/><rect x="23" width="1" height="32" fill="#ffffff" fill-opacity="0.08"/></g>
<g id="decoration-inactive-right" transform="translate(620.0 0)"><rect width="36" height="32" fill="#000000" fill-opacity="0"/><g transform="translate(36 0) scale(-1 1)"><rect width="24" height="32" fill="url(#decoration-inactiveright)"/><rect x="24" width="12" height="32" fill="currentColor" class="ColorScheme-HeaderBackground" fill-opacity="0.94"/><rect x="23" width="1" height="32" fill="#ffffff" fill-opacity="0.08"/></g></g>
<g id="decoration-inactive-center" transform="translate(660.0 0)"><rect width="32" height="32" fill="#000000" fill-opacity="0"/><rect width="32" height="32" fill="currentColor" class="ColorScheme-HeaderBackground" fill-opacity="0.94"/></g>
<g id="mask-topleft" transform="translate(696.0 0)"><rect width="36" height="36" fill="#000000" fill-opacity="0"/><path d="M 24 36 A 12 12 0 0 1 36 24 L 36 36 Z" fill="#000000"/></g>
<g id="mask-topright" transform="translate(736.0 0)"><rect width="36" height="36" fill="#000000" fill-opacity="0"/><g transform="translate(36 0) scale(-1 1)"><path d="M 24 36 A 12 12 0 0 1 36 24 L 36 36 Z" fill="#000000"/></g></g>
<g id="mask-bottomleft" transform="translate(776.0 0)"><rect width="36" height="36" fill="#000000" fill-opacity="0"/><g transform="translate(0 36) scale(1 -1)"><path d="M 24 36 A 12 12 0 0 1 36 24 L 36 36 Z" fill="#000000"/></g></g>
<g id="mask-bottomright" transform="translate(816.0 0)"><rect width="36" height="36" fill="#000000" fill-opacity="0"/><g transform="translate(36 36) scale(-1 -1)"><path d="M 24 36 A 12 12 0 0 1 36 24 L 36 36 Z" fill="#000000"/></g></g>
<g id="mask-top" transform="translate(856.0 0)"><rect width="32" height="36" fill="#000000" fill-opacity="0"/><rect y="24" width="32" height="12" fill="#000000"/></g>
<g id="mask-bottom" transform="translate(892.0 0)"><rect width="32" height="36" fill="#000000" fill-opacity="0"/><g transform="translate(0 36) scale(1 -1)"><rect y="24" width="32" height="12" fill="#000000"/></g></g>
<g id="mask-left" transform="translate(928.0 0)"><rect width="36" height="32" fill="#000000" fill-opacity="0"/><rect x="24" width="12" height="32" fill="#000000"/></g>
<g id="mask-right" transform="translate(968.0 0)"><rect width="36" height="32" fill="#000000" fill-opacity="0"/><g transform="translate(36 0) scale(-1 1)"><rect x="24" width="12" height="32" fill="#000000"/></g></g>
<g id="mask-center" transform="translate(1008.0 0)"><rect width="32" height="32" fill="#000000" fill-opacity="0"/><rect width="32" height="32" fill="#000000"/></g>
</svg>
